# xmcd CD database file
#
# Track frame offsets:
#	150
#	18120
#	35194
#	52849
#	70797
#	86610
#	107229
#	129709
#	153400
#	173291
#	193736
#	215829
#	244092
#
# Disc length: 4136 seconds
#
# Revision: 0
# Processed by: cddbd v1.5.1PL0 Copyright (c) Steve Scherf et al.
# Submitted via: Feurio! 1.68 - http://www.feurio.com
#
DISCID=ae10260d
DTITLE=Ray Charles - Genius loves company
DYEAR=2004
DGENRE=blues
TTITLE0=Ray Charles and Norah Jones - Here we go again
TTITLE1=Ray Charles and James Taylor - Sweet potato pie
TTITLE2=Ray Charles and Diana Krall - You don`t know me
TTITLE3=Ray Charles and Elton John - Sorry seems to be the hardest word
TTITLE4=Ray Charles and Natalie Cole - Fever
TTITLE5=Ray Charles and Bonnie Raitt - Do I ever cross your mind
TTITLE6=Ray Charles and Willie Nelson - It was a very good year
TTITLE7=Ray Charles and Michael McDonald - Hey girl
TTITLE8=Ray Charles and B.B.King - Sinner's prayer
TTITLE9=Ray Charles and Gladys Knight - Heaven help us all
TTITLE10=Ray Charles and Johnny Mathis - Over the rainbow
TTITLE11=Ray Charles and Van Morrison - Crazy Love
TTITLE12=Bonus
EXTD=
EXTT0=
EXTT1=
EXTT2=
EXTT3=
EXTT4=
EXTT5=
EXTT6=
EXTT7=
EXTT8=
EXTT9=
EXTT10=
EXTT11=
EXTT12=
PLAYORDER=
